<svg width="93" height="44" viewBox="0 0 93 44" fill="none" xmlns="http://www.w3.org/2000/svg">
<path fill-rule="evenodd" clip-rule="evenodd" d="M33.5463 16.7076C33.6847 16.5405 33.8232 16.371 33.9616 16.199L33.959 16.1969L39.3404 9.53802C39.5072 9.30869 39.6949 9.19403 39.9033 9.19403C40.0076 9.19403 40.091 9.2253 40.1535 9.28785C40.2369 9.32954 40.2786 9.41294 40.2786 9.53802C40.2786 9.62142 40.2473 9.73608 40.1848 9.88202L35.494 21.1087C35.4314 21.2338 35.3584 21.4319 35.2751 21.7029C35.1708 21.9739 35.0666 22.2867 34.9623 22.6411C34.8581 22.9747 34.7747 23.3395 34.7122 23.7356C34.6288 24.1317 34.5871 24.5174 34.5871 24.8927C34.5871 25.8308 34.8372 26.5605 35.3376 27.0817C35.8171 27.5821 36.4009 27.8323 37.0888 27.8323C38.2355 27.8323 39.257 27.4257 40.1535 26.6126C41.0708 25.7996 41.9777 24.705 42.8742 23.3291C43.7707 21.9322 44.7088 20.3269 45.6887 18.5131C46.6686 16.6785 47.8152 14.7605 49.1286 12.7591C49.3371 12.4463 49.5352 12.29 49.7228 12.29C49.8688 12.29 49.9417 12.3942 49.9417 12.6027C49.9417 12.6652 49.8688 12.8737 49.7228 13.2281C49.5977 13.5826 49.4309 14.0308 49.2225 14.5729C49.014 15.0941 48.7742 15.6778 48.5032 16.3241L47.6901 18.263C47.4191 18.8884 47.1585 19.493 46.9083 20.0768C46.679 20.6397 46.4809 21.0983 46.3141 21.4527C45.8555 22.4534 45.5011 23.2874 45.2509 23.9545C45.0216 24.6217 44.9069 25.2679 44.9069 25.8934C44.9069 26.4563 45.1154 26.9254 45.5323 27.3006C45.9493 27.6551 46.4705 27.8323 47.0959 27.8323C47.4921 27.8323 47.8778 27.7801 48.253 27.6759C48.6491 27.5717 49.0348 27.4049 49.4101 27.1756C49.8062 26.9254 50.2232 26.5918 50.661 26.1748C51.0988 25.7579 51.5679 25.2367 52.0682 24.6112L57.9254 17.376L57.9787 17.4186C58.896 16.2511 59.7299 15.1879 60.4805 14.2289C61.2101 13.2698 61.8669 12.4046 62.4506 11.6333C63.0552 10.841 63.5868 10.1322 64.0455 9.50675C64.5042 8.88131 64.9107 8.31841 65.2651 7.81805C65.5778 7.90145 65.8905 7.95357 66.2033 7.97441C66.516 7.99526 66.8079 8.00569 67.0789 8.00569C67.1831 8.00569 67.2665 8.03696 67.3291 8.0995C67.4125 8.1412 67.4542 8.21417 67.4542 8.31841C67.4542 8.42265 67.4229 8.57901 67.3603 8.78749C67.3186 8.97512 67.2561 9.19403 67.1727 9.44421C67.0893 9.69439 66.9955 9.95499 66.8913 10.226C66.787 10.497 66.6828 10.7576 66.5785 11.0078L62.2004 21.4527C61.7626 22.4743 61.4186 23.3395 61.1684 24.0483C60.9183 24.7572 60.7932 25.3722 60.7932 25.8934C60.7932 26.4563 60.9808 26.9254 61.3561 27.3006C61.7522 27.6551 62.263 27.8323 62.8884 27.8323C63.2845 27.8323 63.6702 27.7801 64.0455 27.6759C64.4208 27.5717 64.796 27.4049 65.1713 27.1756C65.5466 26.9254 65.9427 26.5918 66.3596 26.1748C66.7974 25.7579 67.2665 25.2367 67.7669 24.6112L72.673 18.5507C72.2584 19.8623 72.0512 21.2153 72.0512 22.6098C72.0512 23.6731 72.2388 24.5383 72.6141 25.2054C72.9685 25.8725 73.4167 26.4042 73.9588 26.8003C74.5008 27.1756 75.0846 27.4362 75.71 27.5821C76.3355 27.728 76.8984 27.801 77.3987 27.801C77.7323 27.801 78.1388 27.7801 78.6183 27.7385C79.0978 27.6759 79.6503 27.53 80.2758 27.3006C80.9012 27.0713 81.61 26.7273 82.4023 26.2687C83.2154 25.7892 84.1222 25.1324 85.123 24.2985C86.1237 23.4437 87.2286 22.3805 88.4378 21.1087C89.647 19.8162 90.9709 18.2525 92.4094 16.4179L91.6276 15.7925C89.9389 17.8981 88.417 19.6494 87.0618 21.0462C85.7067 22.4222 84.4662 23.5167 83.3404 24.3298C82.2355 25.1429 81.2348 25.7162 80.3383 26.0498C79.4627 26.3833 78.6496 26.5501 77.8991 26.5501C77.2736 26.5501 76.742 26.3416 76.3042 25.9247C75.8664 25.5077 75.6475 24.7363 75.6475 23.6105C75.6475 23.0059 75.7309 22.3492 75.8977 21.6404C76.0436 20.9315 76.2521 20.181 76.5231 19.3888C77.3987 19.3888 78.3369 19.2533 79.3376 18.9822C80.3592 18.7112 81.3599 18.3464 82.3397 17.8877C83.3404 17.4082 84.289 16.8453 85.1855 16.199C86.1028 15.5319 86.9055 14.8126 87.5935 14.0412C88.2814 13.249 88.8339 12.4151 89.2509 11.5394C89.6678 10.6638 89.8763 9.75693 89.8763 8.81876C89.8763 7.7972 89.6262 6.96328 89.1258 6.31699C88.6463 5.64985 87.8541 5.31628 86.7491 5.31628C85.9777 5.31628 85.0813 5.52476 84.0597 5.94172C83.0381 6.35868 81.9749 6.95285 80.8699 7.72424C79.7858 8.47477 78.7122 9.38166 77.6489 10.4449C76.6065 11.5082 75.6683 12.6861 74.8344 13.9787C74.5135 14.468 74.2174 14.9712 73.9459 15.4882L73.8962 15.4485L68.1734 22.516C67.7148 23.0789 67.2769 23.5063 66.86 23.7982C66.443 24.09 66.0886 24.236 65.7967 24.236C65.6091 24.236 65.4527 24.1943 65.3276 24.1109C65.2234 24.0275 65.1713 23.8607 65.1713 23.6105C65.1713 23.4646 65.2026 23.2978 65.2651 23.1102C65.3276 22.9017 65.4006 22.6932 65.484 22.4847L70.2999 10.9453C70.4667 10.5283 70.6335 10.0384 70.8003 9.47548C70.9879 8.91258 71.0817 8.43307 71.0817 8.03696C71.0817 7.66169 70.9671 7.32812 70.7377 7.03625C70.5084 6.74437 70.1019 6.59844 69.5181 6.59844C69.2262 6.59844 68.9135 6.61928 68.58 6.66098C68.2672 6.68183 67.9128 6.69225 67.5167 6.69225C67.204 6.69225 66.9017 6.68183 66.6098 6.66098C66.3179 6.64013 66.0156 6.55674 65.7029 6.4108C66.37 5.61857 66.8287 4.94101 67.0789 4.37811C67.3291 3.81521 67.4542 3.35655 67.4542 3.00213C67.4542 2.50178 67.2665 2.13693 66.8913 1.9076C66.5368 1.65743 66.1511 1.53234 65.7342 1.53234C65.213 1.53234 64.7543 1.67828 64.3582 1.97015C63.9621 2.26202 63.6285 2.60602 63.3575 3.00213C63.1073 3.39825 62.9093 3.80479 62.7633 4.22175C62.6382 4.63871 62.5757 4.96186 62.5757 5.19119C62.5757 5.79578 62.7321 6.28571 63.0448 6.66098C63.3783 7.0154 63.7849 7.29685 64.2644 7.50533C63.4305 8.69367 62.4402 10.0384 61.2935 11.5394C60.4039 12.6878 59.3826 13.9993 58.2295 15.474L58.1976 15.4485L52.4748 22.516C52.0161 23.0789 51.5783 23.5063 51.1613 23.7982C50.7444 24.09 50.39 24.236 50.0981 24.236C49.9104 24.236 49.7541 24.1943 49.629 24.1109C49.5248 24.0275 49.4726 23.8607 49.4726 23.6105C49.4726 23.4646 49.5039 23.2874 49.5665 23.0789C49.629 22.8704 49.702 22.6724 49.7854 22.4847C49.8896 22.2345 50.0981 21.7238 50.4108 20.9524C50.7444 20.181 51.1092 19.295 51.5053 18.2942C51.9223 17.2727 52.3497 16.199 52.7875 15.0732C53.2461 13.9474 53.6735 12.8946 54.0697 11.9147C54.4866 10.914 54.8306 10.0592 55.1016 9.35039C55.3935 8.64155 55.5811 8.19332 55.6645 8.00569C55.7688 7.77636 55.8522 7.51575 55.9147 7.22388C55.9981 6.93201 56.0398 6.65056 56.0398 6.37953C56.0398 6.04596 55.9043 5.76451 55.6333 5.53518C55.3622 5.30585 55.0078 5.19119 54.57 5.19119C53.9863 5.19119 53.4859 5.285 53.0689 5.47264C52.6728 5.63942 52.2663 5.95214 51.8493 6.4108C51.4324 6.86946 50.9737 7.48448 50.4733 8.25586C49.9938 9.0064 49.3892 9.96541 48.6596 11.1329C48.1175 11.9877 47.565 12.9258 47.0021 13.9474C46.4392 14.9481 45.8763 15.9593 45.3134 16.9808C44.7505 17.9815 44.1876 18.9614 43.6247 19.9204C43.0827 20.8794 42.5615 21.7238 42.0611 22.4534C41.5816 23.1831 41.1334 23.7773 40.7164 24.236C40.2995 24.6738 39.9346 24.8927 39.6219 24.8927C39.33 24.8927 39.059 24.8406 38.8088 24.7363C38.5586 24.6112 38.4335 24.3089 38.4335 23.8294C38.4335 23.475 38.5065 23.0372 38.6525 22.516C38.7984 21.9739 38.986 21.4527 39.2154 20.9524L43.9062 9.81947C44.1355 9.27742 44.3231 8.75622 44.4691 8.25586C44.615 7.75551 44.688 7.30727 44.688 6.91116C44.688 6.51504 44.5525 6.16063 44.2814 5.8479C44.0104 5.51433 43.5726 5.34755 42.968 5.34755C42.3217 5.34755 41.6963 5.60815 41.0917 6.12935C40.5079 6.62971 39.945 7.21346 39.403 7.8806L32.4213 16.5068C31.3669 17.7586 30.2855 18.8548 29.177 19.7953C27.8218 20.942 26.5084 21.9114 25.2367 22.7036C23.9858 23.475 22.8183 24.09 21.7342 24.5487C20.6501 25.0073 19.7536 25.3409 19.0448 25.5494C20.6084 24.6321 22.1095 23.5167 23.548 22.2033C25.0073 20.8898 26.2999 19.4826 27.4257 17.9815C28.5515 16.4805 29.448 14.9481 30.1151 13.3845C30.7823 11.8 31.1158 10.299 31.1158 8.88131C31.1158 8.15162 31.022 7.54703 30.8344 7.06752C30.6676 6.58801 30.4487 6.21275 30.1777 5.94172C29.9275 5.64985 29.6461 5.45179 29.3333 5.34755C29.0415 5.22246 28.7704 5.15991 28.5203 5.15991C27.728 5.15991 26.9462 5.46221 26.1748 6.06681C25.4035 6.6714 24.5174 7.47406 23.5167 8.47477C23.1206 8.87088 22.6515 9.40251 22.1095 10.0697C21.5674 10.7159 20.9941 11.4352 20.3895 12.2274C19.8057 12.9988 19.2116 13.791 18.607 14.6041C18.0024 15.4172 17.4395 16.1782 16.9183 16.887C16.4179 17.5958 15.9801 18.2108 15.6048 18.7321C15.2504 19.2324 15.0211 19.5556 14.9168 19.7015C14.6875 19.9934 14.4999 20.1393 14.3539 20.1393C14.208 20.1393 14.135 20.0351 14.135 19.8266C14.135 19.6598 14.1767 19.4826 14.2601 19.295L22.3596 0H18.5444L17.919 1.50107C17.6271 2.08481 17.3352 2.64771 17.0434 3.18977C16.7515 3.71097 16.4179 4.28429 16.0426 4.90974C15.6882 5.51433 15.2608 6.18147 14.7605 6.91116C14.281 7.62 13.6868 8.45392 12.978 9.41294C12.29 10.3511 11.4769 11.4352 10.5387 12.6652C9.57972 13.8953 8.45392 15.3025 7.16134 16.887L7.94314 17.5124C8.9647 16.2615 9.86117 15.1357 10.6326 14.135C11.4039 13.1343 12.0815 12.2483 12.6652 11.4769C13.249 10.6847 13.7493 9.98626 14.1663 9.38166C14.6041 8.77707 14.9794 8.22459 15.2921 7.72424L6.56716 28.5515C5.77493 30.407 4.99313 32.2625 4.22175 34.118C3.88818 34.9102 3.54418 35.7337 3.18977 36.5885C2.8145 37.4641 2.44966 38.3293 2.09524 39.1841C1.71997 40.0389 1.35513 40.8728 1.00071 41.6859C0.646292 42.5198 0.312722 43.2912 0 44L4.40938 42.624C4.7638 41.7901 5.13907 40.8832 5.53518 39.9033C5.9313 38.9443 6.34826 37.954 6.78607 36.9325C7.20303 35.9318 7.63042 34.9311 8.06823 33.9303C8.48519 32.9505 8.89173 32.0332 9.28785 31.1784C9.60057 30.4904 10.0488 29.6461 10.6326 28.6453C11.1955 27.6446 11.8417 26.571 12.5714 25.4243C13.3011 24.2568 14.0829 23.0476 14.9168 21.7967C15.7716 20.525 16.6368 19.2845 17.5124 18.0753C18.3881 16.8661 19.2428 15.7195 20.0768 14.6354C20.9107 13.5513 21.6925 12.6027 22.4222 11.7896C23.1519 10.9557 23.7877 10.299 24.3298 9.81947C24.8927 9.33997 25.3305 9.10021 25.6432 9.10021C25.8725 9.10021 26.0498 9.24615 26.1748 9.53802C26.2999 9.80905 26.3625 10.153 26.3625 10.57C26.3625 11.258 26.2165 12.0815 25.9247 13.0405C25.6536 13.9787 25.2471 14.9898 24.705 16.0739C24.163 17.1372 23.4959 18.2213 22.7036 19.3262C21.9114 20.4312 21.0149 21.484 20.0142 22.4847C19.0135 23.4854 17.8981 24.4027 16.6681 25.2367C15.4589 26.0706 14.1559 26.7377 12.7591 27.2381V27.801C14.01 27.6342 15.4485 27.3945 17.0746 27.0817C18.7008 26.769 20.4312 26.2165 22.2658 25.4243C24.1213 24.6321 26.0393 23.5167 28.0199 22.0782C29.7263 20.8209 31.4326 19.1922 33.139 17.1921L33.1485 17.1997L33.5463 16.7076ZM83.6844 7.69296C84.4767 6.96328 85.1542 6.59844 85.7171 6.59844C86.009 6.59844 86.2488 6.70268 86.4364 6.91116C86.624 7.09879 86.7178 7.47406 86.7178 8.03696C86.7178 8.97512 86.4781 10.0071 85.9986 11.1329C85.5399 12.2587 84.8728 13.3324 83.9972 14.3539C83.1424 15.3547 82.1 16.2407 80.8699 17.0121C79.6607 17.7626 78.316 18.263 76.8358 18.5131C77.357 17.1163 78.0033 15.7195 78.7747 14.3227C79.5669 12.905 80.38 11.6228 81.2139 10.4762C82.0687 9.32954 82.8922 8.4018 83.6844 7.69296Z" fill="#8B8B8B"/>
</svg>
